<?xml version="1.0" ?><svg id="Layer_1" style="enable-background:new 0 0 256 256;" version="1.1" viewBox="0 0 256 256" xml:space="preserve" xmlns="http://www.w3.org/2000/svg" xmlns:xlink="http://www.w3.org/1999/xlink"><style type="text/css">
	.st0{fill:#D5E2EB;}
	.st1{fill:#3E5063;}
	.st2{fill:#4B687F;}
</style><g id="Layer_2"><circle class="st0" cx="128" cy="128" r="120"/></g><g><g><path class="st1" d="M198,170.3v8c0,2.2-1.8,4-4,4H62c-2.2,0-4-1.8-4-4v-8c0,2.2,1.8,4,4,4h132C196.2,174.3,198,172.5,198,170.3z"/></g><g><path class="st1" d="M195,73.8l-45.7,45.7l-2.4,2.4l-3.3,3.3l-0.3,0.3l-6.6,6.6c-4.8,4.8-12.6,4.8-17.4,0l-6.6-6.6l-0.3-0.3    l-3.3-3.3l-2.4-2.4L61,73.8c0.3-0.1,0.6-0.1,1-0.1h132C194.3,73.7,194.7,73.7,195,73.8z"/></g><g><path class="st2" d="M198,78.8v92.5c0,2.2-1.8,4-4,4H62c-2.2,0-4-1.8-4-4V78.8l3,3h0l41.7,41.7l1.7,1.7l-39.7,39.7    c-1.2,1.2-1.2,3.1,0,4.3c0.6,0.6,1.4,0.9,2.1,0.9c0.8,0,1.5-0.3,2.1-0.9l39.7-39.7l6.6,6.6c3.5,3.5,8.1,5.3,12.7,5.3    s9.2-1.7,12.7-5.3l6.6-6.6l39.7,39.7c0.6,0.6,1.4,0.9,2.1,0.9c0.8,0,1.5-0.3,2.1-0.9c1.2-1.2,1.2-3.1,0-4.3l-39.7-39.7l1.7-1.7    L195,81.8h0L198,78.8z"/></g></g></svg>