<svg width="27" height="31" viewBox="0 0 27 31" fill="none" xmlns="http://www.w3.org/2000/svg">
<path d="M0.956391 0.0256653C0.757231 0.103165 0.611013 0.243164 0.540424 0.430664C0.507651 0.513165 0.265634 2.26817 0.187483 2.98067C-0.0444495 5.09066 -0.0620966 7.33066 0.139584 9.31816C0.701769 14.9057 2.84715 20.0782 6.45219 24.5432C7.91185 26.3482 9.70681 28.1032 11.3934 29.3682C11.7413 29.6307 11.9354 29.8032 12.4144 30.2782L13.0068 30.8682H13.5211C13.9799 30.8682 14.0379 30.8632 14.0707 30.8232C14.0883 30.8007 14.2572 30.4807 14.4438 30.1157L14.7816 29.4482L15.0539 29.2407C16.4934 28.1432 18.1345 26.5607 19.4203 25.0307C21.6992 22.3232 23.3984 19.4032 24.5782 16.1807C26.0656 12.1132 26.5875 7.64566 26.1009 3.10567C26.0354 2.49067 25.7808 0.583164 25.748 0.463165C25.7127 0.333164 25.5816 0.170664 25.4354 0.0806656L25.3144 0.00566483L13.1732 0.000665665C3.9211 -0.00183487 1.01437 0.00316429 0.956391 0.0256653ZM24.4724 1.44816C24.5026 1.61816 24.6665 2.87066 24.7018 3.21816C24.9135 5.19567 24.9211 7.41067 24.7295 9.28066C24.2808 13.6307 22.8034 17.7482 20.3606 21.4432C18.6488 24.0332 16.3925 26.4707 14.0858 28.2232C13.8866 28.3732 13.6976 28.5332 13.6648 28.5757C13.632 28.6207 13.5463 28.7732 13.4732 28.9182C13.4001 29.0632 13.3371 29.1857 13.332 29.1932C13.3245 29.1982 13.1757 29.0632 12.9992 28.8882C12.8228 28.7157 12.5782 28.5032 12.4522 28.4157C11.8471 27.9907 10.869 27.1657 10.1051 26.4407C7.75051 24.2032 5.79925 21.5957 4.33454 18.7307C1.92194 14.0057 0.986643 8.74817 1.57656 3.21816C1.6295 2.72566 1.79589 1.45066 1.81353 1.39816C1.8211 1.37567 4.11017 1.36816 13.1429 1.36816H24.4597L24.4724 1.44816Z" fill="white"/>
<path d="M2.37071 2.38571C2.15894 3.96571 2.09088 5.08571 2.11104 6.75821C2.12365 7.92571 2.15138 8.43821 2.24466 9.29321C2.70852 13.5907 4.1455 17.5457 6.55306 21.1557C8.06062 23.4182 9.91104 25.4757 11.943 27.1532C12.3236 27.4657 13.0951 28.0432 13.1354 28.0432C13.1505 28.0432 13.2766 27.9632 13.4127 27.8657C14.7892 26.8807 16.5438 25.2132 17.8623 23.6432C20.0707 21.0082 21.7547 18.0332 22.8161 14.8807C23.8169 11.9007 24.2782 8.72571 24.1673 5.53571C24.1245 4.31071 24.0211 3.11821 23.8825 2.23571L23.8547 2.06821H13.1354H2.41357L2.37071 2.38571Z" fill="white"/>
</svg>
